<?xml version="1.0" encoding="UTF-8" standalone="no"?>
<!-- Uploaded to: SVG Repo, www.svgrepo.com, Generator: SVG Repo Mixer Tools -->

<svg
   width="800px"
   height="800px"
   viewBox="0 0 36 36"
   aria-hidden="true"
   role="img"
   class="iconify iconify--twemoji"
   preserveAspectRatio="xMidYMid meet"
   version="1.1"
   id="svg55"
   sodipodi:docname="scorpion-svgrepo-com.svg"
   inkscape:version="1.2.2 (732a01da63, 2022-12-09)"
   xmlns:inkscape="http://www.inkscape.org/namespaces/inkscape"
   xmlns:sodipodi="http://sodipodi.sourceforge.net/DTD/sodipodi-0.dtd"
   xmlns="http://www.w3.org/2000/svg"
   xmlns:svg="http://www.w3.org/2000/svg">
  <defs
     id="defs59" />
  <sodipodi:namedview
     id="namedview57"
     pagecolor="#ffffff"
     bordercolor="#000000"
     borderopacity="0.25"
     inkscape:showpageshadow="2"
     inkscape:pageopacity="0.0"
     inkscape:pagecheckerboard="0"
     inkscape:deskcolor="#d1d1d1"
     showgrid="false"
     inkscape:zoom="1.105"
     inkscape:cx="367.8733"
     inkscape:cy="400"
     inkscape:window-width="1920"
     inkscape:window-height="1129"
     inkscape:window-x="1912"
     inkscape:window-y="-8"
     inkscape:window-maximized="1"
     inkscape:current-layer="svg55" />
  <g
     id="g255"
     transform="translate(0.03150014,0.22535141)">
    <path
       fill="#583529"
       d="m 18.286711,22.851822 c -0.25247,1.305785 0.932567,2.749049 0.932567,2.749049 0,0 -0.229222,-1.70336 0.435739,-2.570168 0.457904,-0.597688 0.133533,-1.259074 -0.243819,-1.30897 -0.378434,-0.04937 -0.982305,0.395452 -1.124487,1.130089 z"
       id="path35"
       style="stroke-width:0.53569" />
    <path
       fill="#583529"
       d="m 16.613494,22.892693 c -1.363442,1.000042 -2.667956,0.403944 -3.321565,-0.573271 -0.652527,-0.977747 -1.341275,-0.419338 -0.692533,0.639091 0.648202,1.057368 2.607947,2.630151 4.95802,0.84133 1.783501,-1.355681 -0.518455,-1.218733 -0.943922,-0.90715 z"
       id="path37"
       style="stroke-width:0.53569" />
    <path
       fill="#7c533e"
       d="m 13.377347,22.694172 c -0.848232,1.183169 -3.091801,0.899187 -3.9589539,-1.067454 -0.8379598,-1.901351 -0.185973,-3.63072 0.2503067,-4.166305 0.1778635,-0.21763 -0.2767966,2.554775 1.2093652,3.318607 0.651446,0.334408 -1.3218134,-1.804215 -0.37573,-3.786249 0.283825,-0.594503 -0.02649,2.010168 1.76404,2.757544 0.781195,0.325915 2.354936,1.210771 1.110972,2.943857 z m 1.446157,-2.26814 c 0.321127,-0.399698 0.887156,-0.824874 4.594723,-0.824874 2.770673,0 3.557274,-1.282961 4.480111,-1.603038 3.156134,-1.093993 2.031106,6.238046 -3.228579,6.238046 -5.260224,5.31e-4 -6.277669,-3.274019 -5.846255,-3.810134 z"
       id="path39"
       style="stroke-width:0.53569" />
    <path
       fill="#7c533e"
       d="m 20.693547,19.496058 c 3.453476,-0.568494 4.342253,-4.599974 3.1956,-6.678084 -1.075833,-1.950187 -3.773522,-2.8647673 -6.029526,-1.039321 0.08596,0.54567 0.273013,2.98579 -1.806208,3.28198 0.663339,-1.334449 -1.372092,-2.32175 -0.753625,-4.051651 0.619551,-1.7299007 2.301417,-1.3148095 2.445222,-0.865747 1.706735,-1.3498421 3.914083,-1.482544 4.774748,-0.6422761 2.56632,0.022289 4.170338,1.7166311 4.169256,2.9629671 1.480216,1.448572 0.741729,5.028336 0.12218,5.423256 0.276796,2.141276 -0.35735,4.116409 -2.763646,4.800089 -0.415735,0.118371 -6.442018,-2.682699 -3.354001,-3.191213 z"
       id="path41"
       style="stroke-width:0.53569" />
    <path
       fill="#af7e57"
       d="m 17.904493,22.396919 c -0.573057,0.918296 -1.593746,1.280838 -2.580376,1.168307 -1.341277,-0.152342 -1.346142,0.842391 0.06325,1.056837 0.809848,0.123147 2.091115,0.0064 3.046388,-0.756401 1.214773,-0.970845 -0.199487,-2.000612 -0.529264,-1.468743 z"
       id="path43"
       style="stroke-width:0.53569" />
    <path
       fill="#af7e57"
       d="m 15.71877,23.76481 c 0.431414,1.583928 -1.450482,3.295781 -3.8238,2.606794 C 9.6005824,25.705442 8.5415087,23.892735 8.3847293,23.130495 8.3214773,22.821035 10.447733,25.223467 12.204203,24.509002 12.973504,24.195826 9.644372,24.325873 8.5750273,22.077904 8.25444,21.40431 10.336905,23.56151 12.300433,22.575802 13.158396,22.144786 15.085162,21.44306 15.71877,23.76481 Z"
       id="path45"
       style="stroke-width:0.53569" />
    <path
       fill="#292f33"
       d="m 17.392525,20.899513 a 0.68928953,0.67677921 0 1 1 -1.378578,0 0.68928953,0.67677921 0 0 1 1.378578,0 z"
       id="path47"
       style="stroke-width:0.53569" />
    <path
       fill="#af7e57"
       d="m 24.785494,22.411251 c 0.772003,1.092402 0.286528,2.883876 0.286528,2.883876 0,0 -0.495748,-1.647626 -1.462375,-2.174187 -0.665502,-0.363602 -0.643337,-1.097178 -0.318966,-1.293576 0.325454,-0.195869 1.060696,-0.03078 1.494813,0.583887 z m -1.538602,0.838144 c 0.601708,1.190602 -0.143265,2.893962 -0.143265,2.893962 0,0 -0.247063,-1.700706 -1.125029,-2.359438 -0.604952,-0.454372 -0.474662,-1.177331 -0.124341,-1.324895 0.35032,-0.148096 1.054207,0.120494 1.392635,0.790371 z m -1.774854,0.575927 c 0.25301,1.305785 -0.932568,2.74905 -0.932568,2.74905 0,0 0.229223,-1.703361 -0.435738,-2.570169 -0.458447,-0.597688 -0.133534,-1.259074 0.243819,-1.30897 0.378974,-0.04937 0.983386,0.395452 1.124487,1.130089 z"
       id="path49"
       style="stroke-width:0.53569" />
    <path
       fill="#583529"
       d="m 24.114585,16.440733 c -0.123801,-0.0069 -0.621712,0.891755 -0.58495,1.073822 0.12218,0.600875 2.624166,0.677841 3.281559,0.372627 0.490342,-0.227185 0.747676,-1.353558 0.68172,-1.873218 -1.094213,0.530807 -3.102614,0.442162 -3.378329,0.426769 z m 1.928389,-5.460415 c -0.112449,0.552041 -1.582392,1.522356 -2.239245,1.666204 -0.101636,0.02229 0.20868,0.793557 0.381137,0.894411 0.172998,0.100853 2.408999,-0.541424 2.503607,-1.078069 0.05299,-0.299907 -0.124341,-1.187417 -0.645499,-1.482546 z M 22.519758,9.5004276 c -5.4e-4,-0.1199617 -0.424385,-0.5403613 -1.134218,-0.4936503 0.228682,0.7840025 -0.218952,1.5382797 -0.440065,1.8116457 -0.07353,0.09077 0.783358,0.26965 0.912025,0.227716 0.230845,-0.07538 0.663881,-0.937406 0.662258,-1.5457114 z"
       id="path51"
       style="stroke-width:0.53569" />
    <path
       fill="#292f33"
       d="m 17.84124,10.141643 c -0.293016,-0.5822951 -1.306678,-0.7627702 -2.050028,-0.03292 -0.743351,0.729861 -0.88986,1.681068 -0.428171,2.631743 0.461689,0.951207 1.002309,1.559512 0.574139,2.388632 1.103944,-0.143849 1.772689,-1.167245 1.959744,-1.681066 0.338428,-0.928383 0.406005,-2.388102 -0.05569,-3.306399 z"
       id="path53"
       style="stroke-width:0.53569" />
  </g>
</svg>
